<?xml version="1.0" encoding="utf-8"?>
<!-- Generator: Adobe Illustrator 16.0.0, SVG Export Plug-In . SVG Version: 6.00 Build 0)  -->
<!DOCTYPE svg PUBLIC "-//W3C//DTD SVG 1.1//EN" "http://www.w3.org/Graphics/SVG/1.1/DTD/svg11.dtd">
<svg version="1.1" id="Layer_1" xmlns="http://www.w3.org/2000/svg" xmlns:xlink="http://www.w3.org/1999/xlink" x="0px" y="0px"
	 width="577.13px" height="228px" viewBox="0 0 577.13 228" enable-background="new 0 0 577.13 228" xml:space="preserve">
<path fill="#FFFFFF" d="M25.574,25.184l-0.767-0.043c-1.5-1.458-4.059-2.774-6.65-2.774c-7.708,0-8.842,7.341-8.842,9.792
	s1.134,9.759,8.842,9.759c2.71,0,5.15-1.317,6.834-2.699l0.734,0.076l1.5,1.868l-0.076,0.842c-2.224,2.051-5.074,3.325-8.993,3.325
	c-9.749,0-12.642-7.676-12.642-13.149c0-5.333,2.883-13.117,12.642-13.117c4.135,0,6.866,1.425,9.101,3.725l-0.043,0.767
	l-1.641,1.641V25.184z"/>
<path fill="#FFFFFF" d="M74.631,34.728v7.676h12.534l0.551,0.551v2.191l-0.551,0.551H71.458l-0.551-0.551V20.671l0.551-0.55h15.708
	l0.551,0.55v2.192l-0.551,0.55H74.631v8.043h9.684l0.551,0.551v2.191l-0.551,0.551h-9.684V34.728z"/>
<path fill="#FFFFFF" d="M147.817,20.66l0.551-0.55h2.667l0.551,0.55v24.885l-0.334,0.324L150.7,45.61l-16.043-17.209l-0.032,16.734
	l-0.551,0.551h-2.667l-0.551-0.551V20.229l0.324-0.367l0.583,0.259l16.043,17.101v-16.55L147.817,20.66z"/>
<path fill="#FFFFFF" d="M202.532,23.402h-6.866l-0.55-0.55V20.66l0.55-0.55h17.576l0.55,0.55v2.192l-0.55,0.55H206.3v21.743
	l-0.551,0.551h-2.667l-0.551-0.551V23.402L202.532,23.402z"/>
<path fill="#FFFFFF" d="M258.639,34.652v7.676h12.534l0.551,0.55v2.192l-0.551,0.55h-15.708l-0.551-0.55V20.596l0.551-0.551h15.708
	l0.551,0.551v2.191l-0.551,0.551h-12.534v8.043h9.684l0.551,0.55v2.192l-0.551,0.55h-9.684V34.652z"/>
<path fill="#FFFFFF" d="M318.492,45.07l-0.551,0.55h-2.591l-0.551-0.55V20.596l0.551-0.551h8.917c6.834,0,8.875,4.75,8.875,8
	c0,3.8-2.635,6.575-5.701,7.633l4.459,9.425l-0.334,0.507h-2.926l-0.767-0.507l-4.232-8.993h-5.149v8.95V45.07z M329.375,28.045
	c0-1.641-0.875-4.75-4.935-4.75h-5.948v9.5h6.1C328.5,32.719,329.375,29.545,329.375,28.045z"/>
<path fill="#FFFFFF" d="M429.842,34.652V45.07l-0.55,0.55h-2.635l-0.551-0.55V20.596l0.551-0.551h15.708l0.551,0.551v2.191
	l-0.551,0.551h-12.534v8.043h9.685l0.551,0.55v2.192l-0.551,0.55h-9.685L429.842,34.652z"/>
<path fill="#FFFFFF" d="M508.329,32.46c0,5.484-2.882,13.149-12.642,13.149s-12.643-7.676-12.643-13.149
	c0-5.333,2.883-13.117,12.643-13.117S508.329,27.127,508.329,32.46L508.329,32.46z M504.497,32.46c0-2.451-1.091-9.792-8.799-9.792
	c-7.709,0-8.842,7.341-8.842,9.792s1.133,9.824,8.842,9.824C503.406,42.285,504.497,34.9,504.497,32.46z"/>
<path fill="#FFFFFF" d="M555.39,45.07l-0.551,0.55h-2.591l-0.551-0.55V20.596l0.551-0.551h8.917c6.834,0,8.874,4.75,8.874,8
	c0,3.8-2.634,6.575-5.7,7.633l4.459,9.425l-0.335,0.507h-2.926l-0.766-0.507l-4.232-8.993h-5.149v8.95V45.07z M566.271,28.045
	c0-1.641-0.874-4.75-4.934-4.75h-5.948v9.5h6.1C565.397,32.719,566.271,29.545,566.271,28.045z"/>
<path fill="#FFFFFF" d="M16.657,136.771c0,0.842-0.734,1.576-1.576,1.576H7.588c-0.842,0-1.587-0.734-1.587-1.576v-70.66
	c0-0.842,0.734-1.587,1.587-1.587h25.727c19.724,0,25.63,13.711,25.63,23.093c0,10.969-7.59,18.979-16.453,22.045l12.869,27.207
	c0.313,0.734-0.216,1.479-0.95,1.479h-8.432c-0.95,0-1.9-0.529-2.213-1.479l-12.232-25.943H16.667v25.835L16.657,136.771z
	 M48.084,87.628c0-4.75-2.537-13.711-14.24-13.711H16.657v27.422h17.608C45.547,101.123,48.084,91.957,48.084,87.628z"/>
<path fill="#FFFFFF" d="M84.153,106.715v22.142h36.178c0.842,0,1.576,0.734,1.576,1.588v6.326c0,0.842-0.734,1.576-1.576,1.576
	H74.988c-0.842,0-1.587-0.734-1.587-1.576v-70.66c0-0.842,0.734-1.587,1.587-1.587h45.343c0.842,0,1.576,0.734,1.576,1.587v6.327
	c0,0.842-0.734,1.587-1.576,1.587H84.153v23.201h27.951c0.842,0,1.576,0.734,1.576,1.576v6.327c0,0.842-0.734,1.576-1.576,1.576
	H84.153V106.715z"/>
<path fill="#FFFFFF" d="M184.902,119.163c0,11.282-11.174,20.038-26.148,20.038c-10.332,0-17.716-2.009-25.414-5.798
	c-0.734-0.421-1.058-1.371-0.734-2.116l2.742-5.689c0.421-0.842,1.371-1.155,2.213-0.842c6.11,2.85,12.869,4.848,20.351,4.848
	c8.227,0,15.719-4.113,15.719-10.549c0-20.037-41.025-8.863-41.025-35.324c0-12.761,9.598-20.35,22.996-20.35
	c4.113,0,13.495,0.637,23.837,5.268c0.842,0.313,1.155,1.263,0.842,2.105l-2.742,6.013c-0.313,0.842-1.263,1.263-2.105,0.95
	c-5.171-2.008-12.977-4.221-17.403-4.221c-7.806,0-14.024,1.587-14.553,9.382c0,16.982,41.446,7.276,41.446,36.274L184.902,119.163z
	"/>
<path fill="#FFFFFF" d="M213.425,136.771c0,0.842-0.745,1.576-1.587,1.576h-7.697c-0.842,0-1.587-0.734-1.587-1.576v-70.66
	c0-0.842,0.745-1.587,1.587-1.587h7.697c0.842,0,1.587,0.734,1.587,1.587V136.771z"/>
<path fill="#FFFFFF" d="M241.57,128.857h26.569c0.842,0,1.587,0.734,1.587,1.588v6.326c0,0.842-0.734,1.576-1.587,1.576h-35.854
	c-0.842,0-1.587-0.734-1.587-1.576v-70.66c0-0.842,0.745-1.587,1.587-1.587h7.698c0.842,0,1.587,0.734,1.587,1.587V128.857z"/>
<path fill="#FFFFFF" d="M293.143,136.771c0,0.842-0.744,1.576-1.586,1.576h-7.698c-0.842,0-1.587-0.734-1.587-1.576v-70.66
	c0-0.842,0.745-1.587,1.587-1.587h7.698c0.842,0,1.586,0.734,1.586,1.587V136.771z"/>
<path fill="#FFFFFF" d="M323.21,106.715v22.142h36.177c0.843,0,1.588,0.734,1.588,1.588v6.326c0,0.842-0.745,1.576-1.588,1.576
	h-45.343c-0.842,0-1.587-0.734-1.587-1.576v-70.66c0-0.842,0.745-1.587,1.587-1.587h45.343c0.843,0,1.588,0.734,1.588,1.587v6.327
	c0,0.842-0.745,1.587-1.588,1.587H323.21v23.201h27.95c0.843,0,1.588,0.734,1.588,1.576v6.327c0,0.842-0.745,1.576-1.588,1.576
	h-27.95V106.715z"/>
<path fill="#FFFFFF" d="M422.965,66.111c0-0.842,0.734-1.587,1.576-1.587h7.698c0.842,0,1.587,0.734,1.587,1.587v71.815
	c0,0.528-0.421,0.95-0.95,0.95c-0.637,0-1.166-0.217-1.587-0.734L384.995,88.47l-0.097,48.301c0,0.842-0.745,1.576-1.587,1.576
	h-7.698c-0.842,0-1.586-0.734-1.586-1.576V64.849c0-0.637,0.42-1.058,0.949-1.058c0.637,0,1.264,0.313,1.685,0.734l46.293,49.359
	V66.111H422.965z"/>
<path fill="#FFFFFF" d="M507.163,81.193c-0.637,0.529-1.587,0.529-2.213-0.108c-4.318-4.221-11.703-8.01-19.195-8.01
	c-22.251,0-25.521,21.192-25.521,28.264s3.271,28.156,25.521,28.156c7.806,0,14.866-3.8,19.725-7.806
	c0.637-0.529,1.587-0.529,2.116,0.216l4.318,5.376c0.528,0.734,0.421,1.793-0.217,2.43c-6.434,5.905-14.66,9.598-25.942,9.598
	c-28.156,0-36.49-22.143-36.49-37.97c0-15.395,8.334-37.861,36.49-37.861c11.919,0,19.832,4.113,26.267,10.752
	c0.626,0.637,0.529,1.685-0.107,2.213L507.163,81.193L507.163,81.193z"/>
<path fill="#FFFFFF" d="M538.126,106.715v22.142h36.178c0.843,0,1.576,0.734,1.576,1.588v6.326c0,0.842-0.734,1.576-1.576,1.576
	h-45.343c-0.843,0-1.588-0.734-1.588-1.576v-70.66c0-0.842,0.745-1.587,1.588-1.587h45.343c0.843,0,1.576,0.734,1.576,1.587v6.327
	c0,0.842-0.734,1.587-1.576,1.587h-36.178v23.201h27.951c0.843,0,1.587,0.734,1.587,1.576v6.327c0,0.842-0.744,1.576-1.587,1.576
	h-27.951V106.715z"/>
<path fill="#FFFFFF" d="M3.799,210.476l-0.54-0.539v-26.148l0.54-0.54h8.604c10.386,0,13.463,7.903,13.463,13.582
	c0,5.841-3.077,13.656-13.463,13.656H3.799V210.476z M12.403,208.533c9.533,0,11.088-8.681,11.088-11.714
	c0-3.034-1.555-11.671-11.088-11.671H5.709v23.385H12.403L12.403,208.533z"/>
<path fill="#FFFFFF" d="M47.89,202.66H36.025l-2.915,7.276l-0.734,0.507h-1.673l-0.345-0.507l11.087-26.731l0.54-0.356l0.54,0.356
	l11.087,26.731l-0.345,0.507h-1.673l-0.734-0.507L47.9,202.66H47.89z M36.759,200.867h10.386l-5.171-12.836L36.759,200.867z"/>
<path fill="#FFFFFF" d="M76.553,183.745l0.734-0.508h1.673l0.346,0.508l-11.087,26.73l-0.54,0.346l-0.54-0.346l-11.087-26.73
	l0.346-0.508h1.673l0.734,0.508l8.875,21.905L76.553,183.745L76.553,183.745z"/>
<path fill="#FFFFFF" d="M90.383,209.926l-0.54,0.539h-1.36l-0.54-0.539v-26.148l0.54-0.54h1.36l0.54,0.54V209.926z"/>
<path fill="#FFFFFF" d="M101.114,210.433l-0.54-0.54v-26.147l0.54-0.54h8.593c10.386,0,13.463,7.903,13.463,13.582
	c0,5.84-3.077,13.656-13.463,13.656h-8.593V210.433z M109.708,208.489c9.533,0,11.087-8.68,11.087-11.714
	c0-3.033-1.554-11.67-11.087-11.67h-6.693v23.384H109.708L109.708,208.489z"/>
<path fill="#FFFFFF" d="M151.391,208.489h10.548l0.54,0.54v0.853l-0.54,0.54h-12.448l-0.54-0.54v-26.147l0.54-0.54h1.36l0.54,0.54
	v24.744V208.489z"/>
<path fill="#FFFFFF" d="M176.049,209.893l-0.54,0.54h-1.446l-0.54-0.54v-11.864l-8.95-14.392l0.27-0.464h1.641l0.821,0.464
	l7.514,12.222l7.514-12.222l0.82-0.464h1.641l0.27,0.464l-8.993,14.359v11.908L176.049,209.893z"/>
<path fill="#FFFFFF" d="M193.604,210.703l-0.551-0.54v-26.418l0.508-0.508l0.82,0.389l17.943,21.668v-21.279l0.54-0.539h1.36
	l0.55,0.539v26.418l-0.507,0.508l-0.82-0.389l-17.9-21.56v21.171l-0.551,0.54H193.604L193.604,210.703z"/>
<path fill="#FFFFFF" d="M245.63,187.675l-0.777,0.043c-1.943-1.555-4.75-2.839-7.622-2.796c-9.565,0.151-10.894,8.874-10.894,11.746
	c0,3.033,1.328,11.789,10.894,11.789c2.958,0,5.679-1.209,7.665-2.645l0.777,0.118l0.659,0.896l-0.076,0.777
	c-2.3,1.792-5.247,3.109-9.025,3.109c-10.386,0-13.419-8.216-13.419-14.046c0-5.56,3.034-13.895,13.419-13.895
	c3.973,0,6.769,1.285,9.112,3.304l0.076,0.734l-0.777,0.853L245.63,187.675z"/>
<path fill="#FFFFFF" d="M257.322,209.893l-0.551,0.54h-1.36l-0.55-0.54v-26.147l0.55-0.54h1.36l0.551,0.54v12.297h16.766v-12.297
	l0.54-0.54h1.403l0.551,0.54v26.147l-0.551,0.54h-1.403l-0.54-0.54v-11.907h-16.766V209.893z"/>
<path fill="#FFFFFF" d="M305.494,198.298v11.908l-0.551,0.54h-1.361l-0.539-0.54v-26.147l0.539-0.54h16.184l0.551,0.54v0.853
	l-0.551,0.54h-14.271v10.893h11.055l0.539,0.54v0.853l-0.539,0.54h-11.055V198.298z"/>
<path fill="#FFFFFF" d="M352.402,196.775c0,5.841-3.033,13.971-13.463,13.971c-10.386,0-13.42-8.13-13.42-13.971
	c0-5.679,3.034-13.894,13.42-13.894C349.369,182.882,352.402,191.086,352.402,196.775L352.402,196.775z M349.833,196.775
	c0-2.99-1.317-11.713-10.894-11.713s-10.893,8.712-10.893,11.713c0,3.002,1.328,11.833,10.893,11.833
	C348.505,208.608,349.833,199.777,349.833,196.775z"/>
<path fill="#FFFFFF" d="M379.166,200.273v-16.539l0.539-0.54h1.447l0.539,0.54v16.539c0,4.47-2.721,10.43-10.461,10.43
	c-7.665,0-10.354-5.96-10.354-10.43v-16.539l0.54-0.54h1.328l0.54,0.54v16.539c0,2.3,1.598,8.442,7.935,8.442
	c6.424,0,7.935-6.143,7.935-8.442H379.166z"/>
<path fill="#FFFFFF" d="M392.499,210.476l-0.551-0.539v-26.418l0.508-0.508l0.82,0.389l17.942,21.668v-21.279l0.54-0.54h1.36
	l0.551,0.54v26.418l-0.508,0.508l-0.82-0.389l-17.899-21.56v21.171l-0.551,0.539H392.499L392.499,210.476z"/>
<path fill="#FFFFFF" d="M424.617,210.476l-0.54-0.539v-26.148l0.54-0.54h8.604c10.386,0,13.462,7.903,13.462,13.582
	c0,5.841-3.076,13.656-13.462,13.656h-8.604V210.476z M433.222,208.533c9.532,0,11.087-8.681,11.087-11.714
	c0-3.034-1.555-11.671-11.087-11.671h-6.693v23.385H433.222L433.222,208.533z"/>
<path fill="#FFFFFF" d="M469.097,202.887h-11.865l-2.915,7.276l-0.744,0.507h-1.674l-0.346-0.507l11.088-26.731l0.54-0.355
	l0.551,0.355l11.087,26.731l-0.346,0.507H472.8l-0.734-0.507l-2.958-7.276H469.097z M457.966,201.095h10.386l-5.182-12.837
	l-5.215,12.837H457.966z"/>
<path fill="#FFFFFF" d="M485.863,185.181h-7.86l-0.55-0.539v-0.854l0.55-0.54h18.332l0.54,0.54v0.854l-0.54,0.539h-7.979v24.745
	l-0.54,0.539h-1.403l-0.55-0.539V185.181L485.863,185.181z"/>
<path fill="#FFFFFF" d="M507.66,209.882l-0.551,0.54h-1.36l-0.54-0.54v-26.147l0.54-0.54h1.36l0.551,0.54V209.882z"/>
<path fill="#FFFFFF" d="M543.87,196.97c0,5.841-3.034,13.971-13.463,13.971c-10.386,0-13.419-8.13-13.419-13.971
	c0-5.679,3.033-13.894,13.419-13.894C540.836,183.076,543.87,191.28,543.87,196.97z M541.301,196.97
	c0-2.99-1.317-11.713-10.894-11.713s-10.894,8.712-10.894,11.713c0,3.002,1.328,11.833,10.894,11.833
	S541.301,199.972,541.301,196.97z"/>
<path fill="#FFFFFF" d="M553.133,210.433l-0.551-0.54v-26.417l0.508-0.508l0.82,0.389l17.943,21.668v-21.279l0.539-0.54h1.36
	l0.551,0.54v26.418l-0.507,0.507l-0.821-0.389l-17.899-21.56v21.171l-0.551,0.54H553.133L553.133,210.433z"/>
<rect x="-0.066" y="226.973" fill="#FFFFFF" width="577.134" height="1.36"/>
<rect x="-0.066" y="165.37" fill="#FFFFFF" width="577.134" height="1.36"/>
<rect x="-0.066" y="0.385" fill="#FFFFFF" width="577.134" height="1.36"/>
</svg>
